Coordinates
version=1
nRows=11
nColumns=36
inDegrees=yes

Units are S.I. units (second, meters, Newtons, ...)
If the header above contains a line with 'inDegrees', this indicates whether rotational values are in degrees (yes) or radians (no).

endheader
time	pelvis_tilt	pelvis_list	pelvis_rotation	pelvis_tx	pelvis_ty	pelvis_tz	hip_flexion_r	hip_adduction_r	hip_rotation_r	knee_angle_r	knee_angle_r_beta	ankle_angle_r	subtalar_angle_r	mtp_angle_r	hip_flexion_l	hip_adduction_l	hip_rotation_l	knee_angle_l	knee_angle_l_beta	ankle_angle_l	subtalar_angle_l	mtp_angle_l	lumbar_extension	lumbar_bending	lumbar_rotation	arm_flex_r	arm_add_r	arm_rot_r	elbow_flex_r	pro_sup_r	arm_flex_l	arm_add_l	arm_rot_l	elbow_flex_l	pro_sup_l
      1.91250000	      5.58614057	     -0.41396198	      5.13706425	     -0.90643488	      1.31471166	     -0.08094331	     -3.54762052	     -0.06033008	    -15.29117310	      9.62687201	      0.16802061	     -0.87540655	    -20.00440562	     -7.49999987	     -4.50760215	     -3.43630552	      6.46308184	      6.56748651	      0.11462426	      3.76281897	     -5.02563245	     -7.49999987	    -42.16579040	     -0.26947262	      3.15932324	     16.89279441	     -5.99687721	      6.68908338	     36.66565367	     99.44218971	     18.35041598	     -5.11422095	     11.68314600	     31.83099188	     99.01299242
      1.91666670	      5.34055430	     -0.40011665	      5.03024381	     -0.90728865	      1.31751206	     -0.07988394	     -3.13401897	     -0.14668005	    -15.02447363	      9.83974717	      0.17173599	     -1.32203773	    -20.75032377	     -7.49999987	     -4.16276696	     -3.35863211	      6.62290033	      6.70913916	      0.11709657	      3.50724136	     -5.58402777	     -7.49999987	    -41.99032658	     -0.40298263	      3.16877760	     17.07549564	     -6.09820997	      7.77085319	     37.02880310	     95.85146646	     18.54334115	     -5.22194386	     12.51244322	     31.71912426	     95.45188263
      1.92083330	      5.09147227	     -0.48026868	      4.94237865	     -0.91052767	      1.31401693	     -0.07632797	     -2.65540636	     -0.06742382	    -14.88988450	     10.07495817	      0.17584119	     -0.98821579	    -20.68120757	     -7.49999987	     -3.68353515	     -3.45118449	      6.34974015	      6.96408961	      0.12154629	      3.71192767	     -5.40720771	     -7.49999987	    -41.88011199	     -0.45281101	      3.25930812	     17.18288197	     -5.87908801	      6.85498022	     37.68726125	    100.37095820	     18.61333068	     -5.11306061	     11.26692338	     31.91107966	     99.62660125
      1.92500000	      4.89386020	     -0.55629313	      4.87902332	     -0.91099425	      1.31626744	     -0.07689531	     -2.30612683	      0.02288222	    -14.64242799	     10.27019181	      0.17924866	     -1.12182172	    -20.77016640	     -7.49999987	     -3.32821999	     -3.52946765	      6.26826256	      7.12366585	      0.12433142	      3.71202021	     -5.28616777	     -7.49999987	    -41.90415388	     -0.47367887	      3.29411811	     17.38344021	     -5.80947983	      6.96873249	     38.36011692	     99.54741909	     18.70342273	     -5.14138963	     11.10981001	     32.24948316	     98.73720318
      1.92916670	      4.57543186	     -0.65132738	      4.78365184	     -0.90949522	      1.31696355	     -0.07653596	     -1.84310336	      0.12782415	    -14.41957865	     10.37896326	      0.18114708	     -0.97252318	    -20.63098734	     -7.49999987	     -2.85115132	     -3.62387737	      6.11517681	      7.28485528	      0.12714471	      3.67435621	     -5.26210858	     -7.49999987	    -41.61502279	     -0.51334953	      3.37049625	     17.58514711	     -5.77940150	      7.35934767	     38.63720528	    100.65630903	     18.87598097	     -5.07089080	     11.02989367	     31.84819260	     99.58073808
      1.93333330	      4.36634363	     -0.70063193	      4.72771879	     -0.91184493	      1.31588712	     -0.07690374	     -1.46969582	      0.17298827	    -14.15652177	     10.53597995	      0.18388754	     -1.02395803	    -20.69434046	     -7.49999987	     -2.48027230	     -3.66653622	      5.98836096	      7.43718652	      0.12980339	      3.64329925	     -5.20728464	     -7.49999987	    -41.54479050	     -0.54441832	      3.43631655	     17.71822949	     -5.75190724	      7.46408598	     39.23931298	    100.67684479	     19.02463066	     -5.05169075	     11.10133301	     31.88738046	     99.26695884
      1.93750000	      4.14972031	     -0.70569466	      4.67489273	     -0.91130726	      1.30891358	     -0.07730551	     -1.07022206	      0.14668438	    -13.63758838	     10.82507568	      0.18893321	     -1.10544199	    -21.22962219	     -7.49999987	     -2.08014613	     -3.65431322	      5.88978189	      7.71694954	      0.13468618	      3.68980928	     -5.44158008	     -7.49999987	    -41.35393358	     -0.57963197	      3.42144976	     17.86411903	     -5.86272843	      8.39229039	     39.79757407	     98.28531100	     19.07602210	     -5.04561546	     11.39217542	     31.86856644	     96.88225623
      1.94166670	      4.00202348	     -0.73272022	      4.57320266	     -0.91049768	      1.31379832	     -0.07697658	     -0.82333087	      0.14875449	    -13.36506333	     11.00883569	      0.19214043	     -1.00386749	    -20.98983741	     -7.49999987	     -1.87842024	     -3.69379365	      5.72819066	      7.79664364	      0.13607710	      3.61601656	     -5.42774644	     -7.49999987	    -41.24953426	     -0.62100385	      3.38212451	     18.02382183	     -5.73156721	      8.36126857	     40.13758625	     98.33718321	     19.04440944	     -5.03035337	     11.31219928	     31.90838720	     96.91752917
      1.94583330	      3.92721703	     -0.78825173	      4.57713495	     -0.90927995	      1.31098831	     -0.07761643	     -0.70003383	      0.14144897	    -13.39250510	     11.20780285	      0.19561306	     -0.69591000	    -20.41861966	     -7.49999987	     -1.74008173	     -3.74653184	      5.65250209	      7.96902641	      0.13908575	      3.77953629	     -5.22705439	     -7.49999987	    -41.13252396	     -0.54009276	      3.32239450	     18.05091343	     -5.65310951	      8.46637094	     40.60929979	     96.59725860	     18.91806847	     -4.98714803	     11.17395091	     32.06508534	     95.20957499
      1.95000000	      3.79881644	     -0.83110000	      4.37662275	     -0.90886179	      1.31614672	     -0.07757779	     -0.50661975	      0.17140503	    -12.95270430	     11.34094519	      0.19793683	     -0.78333901	    -20.41309026	     -7.49999987	     -1.72456348	     -3.76631753	      5.55954238	      7.87854830	      0.13750661	      3.70659603	     -5.26295969	     -7.49999987	    -40.97552180	     -0.60366551	      3.33949663	     18.12218647	     -5.60757820	      8.55393309	     40.90214216	     96.69463986	     18.87783453	     -4.96697799	     11.13583220	     31.98008486	     95.26617090
      1.95416670	      3.71888698	     -0.87002779	      4.18065104	     -0.90817232	      1.31614184	     -0.07810185	     -0.42342941	      0.19072608	    -12.63010270	     11.33593315	      0.19784936	     -1.15902945	    -20.96065219	     -7.49999987	     -1.76308140	     -3.77920889	      5.39762757	      7.81155285	      0.13633732	      3.58839777	     -5.24245532	     -7.49999987	    -40.85115316	     -0.68154954	      3.51181417	     18.00664643	     -5.62519748	      8.17809979	     41.52857010	    100.40274642	     18.84758551	     -4.74198363	     10.34492812	     31.87350227	     98.23704962
